<?xml version="1.0" standalone="no"?>
<!DOCTYPE svg PUBLIC "-//W3C//DTD SVG 20010904//EN"
 "http://www.w3.org/TR/2001/REC-SVG-20010904/DTD/svg10.dtd">
<svg version="1.0" xmlns="http://www.w3.org/2000/svg"
 width="512.000000pt" height="512.000000pt" viewBox="0 0 512.000000 512.000000"
 preserveAspectRatio="xMidYMid meet">
<metadata>
Created by potrace 1.11, written by Peter Selinger 2001-2013
</metadata>
<g transform="translate(0.000000,512.000000) scale(0.100000,-0.100000)"
fill="#000000" stroke="none">
<path d="M2408 5115 c-2 -2 -37 -6 -78 -9 -41 -3 -84 -7 -95 -9 -11 -3 -42 -8
-70 -11 -57 -8 -185 -33 -206 -41 -8 -2 -25 -6 -39 -9 -48 -8 -253 -78 -357
-122 -186 -78 -372 -185 -546 -315 -107 -81 -135 -106 -267 -239 -203 -203
-328 -373 -463 -630 -50 -96 -122 -260 -133 -305 -4 -17 -10 -34 -14 -40 -14
-19 -84 -285 -95 -360 -2 -16 -7 -46 -10 -65 -12 -76 -15 -98 -22 -175 -13
-144 -7 -457 11 -555 3 -14 7 -45 10 -70 4 -25 11 -63 16 -85 5 -22 9 -42 10
-45 0 -3 3 -14 5 -25 3 -11 7 -31 9 -45 10 -58 67 -233 111 -345 192 -484 532
-901 973 -1192 108 -72 304 -177 402 -217 25 -10 59 -24 75 -31 114 -50 430
-131 580 -150 211 -26 526 -26 690 0 17 3 41 7 55 9 178 28 443 103 580 163
109 48 283 137 338 172 34 23 67 41 72 41 6 0 10 4 10 8 0 5 10 13 23 19 24
12 179 127 236 176 82 72 272 268 335 347 141 176 276 401 360 603 46 109 122
335 132 391 3 17 10 51 15 76 15 62 21 97 35 200 20 139 25 397 11 564 -5 55
-10 102 -11 105 -2 3 -7 30 -10 60 -4 29 -8 56 -10 60 -2 3 -7 23 -10 43 -5
32 -14 75 -31 148 -43 183 -197 541 -296 688 -16 24 -29 45 -29 48 0 7 -100
144 -164 224 -98 122 -361 379 -424 414 -10 5 -23 16 -31 23 -31 32 -245 165
-351 220 -150 77 -257 122 -405 169 -66 21 -122 39 -125 39 -6 1 -101 22 -140
31 -40 9 -200 33 -255 39 -60 7 -402 15 -407 10z"/>
</g>
</svg>
